HIERARCHY
ROOT Hips
{
	OFFSET 0.000000 0.000000 0.000000
	CHANNELS 6 Xposition Yposition Zposition Xrotation Yrotation Zrotation
	JOINT LeftUpLeg
	{
		OFFSET 3.317160 0.000000 0.000000
		CHANNELS 6 Xposition Yposition Zposition Xrotation Yrotation Zrotation
		JOINT LeftLeg
		{
			OFFSET 0.000000 -16.621309 0.000000
			CHANNELS 6 Xposition Yposition Zposition Xrotation Yrotation Zrotation
			JOINT LeftFoot
			{
				OFFSET 0.000000 -16.132090 0.000000
				CHANNELS 6 Xposition Yposition Zposition Xrotation Yrotation Zrotation
				JOINT LeftToeBase
				{
					OFFSET 0.000000 -1.705429 6.364750
					CHANNELS 6 Xposition Yposition Zposition Xrotation Yrotation Zrotation
					End Site
					{
						OFFSET 0.000000 0.000000 2.952750
					}
				}
			}
		}
	}
	JOINT RightUpLeg
	{
		OFFSET -3.317160 0.000000 0.000000
		CHANNELS 6 Xposition Yposition Zposition Xrotation Yrotation Zrotation
		JOINT RightLeg
		{
			OFFSET 0.000000 -16.621309 0.000000
			CHANNELS 6 Xposition Yposition Zposition Xrotation Yrotation Zrotation
			JOINT RightFoot
			{
				OFFSET 0.000000 -16.132090 0.000000
				CHANNELS 6 Xposition Yposition Zposition Xrotation Yrotation Zrotation
				JOINT RightToeBase
				{
					OFFSET 0.000000 -1.705429 6.364750
					CHANNELS 6 Xposition Yposition Zposition Xrotation Yrotation Zrotation
					End Site
					{
						OFFSET 0.000000 0.000000 2.952750
					}
				}
			}
		}
	}
	JOINT Spine
	{
		OFFSET 0.000000 0.039370 0.000000
		CHANNELS 6 Xposition Yposition Zposition Xrotation Yrotation Zrotation
		JOINT Spine1
		{
			OFFSET 0.000000 9.216790 0.000000
			CHANNELS 6 Xposition Yposition Zposition Xrotation Yrotation Zrotation
			JOINT Neck
			{
				OFFSET 0.000000 8.819270 0.000000
				CHANNELS 3 Xrotation Yrotation Zrotation
				JOINT Head
				{
					OFFSET 0.000000 6.846361 0.000000
					CHANNELS 6 Xposition Yposition Zposition Xrotation Yrotation Zrotation
					End Site
					{
						OFFSET 0.000000 4.527550 0.000000
					}
				}
			}
			JOINT LeftShoulder
			{
				OFFSET 0.000000 8.819270 0.000000
				CHANNELS 3 Xrotation Yrotation Zrotation
				JOINT LeftArm
				{
					OFFSET 7.313730 -0.000031 0.000000
					CHANNELS 6 Xposition Yposition Zposition Xrotation Yrotation Zrotation
					JOINT LeftForeArm
					{
						OFFSET 10.822620 -0.000040 0.000000
						CHANNELS 6 Xposition Yposition Zposition Xrotation Yrotation Zrotation
						JOINT LeftHand
						{
							OFFSET 10.147810 -0.000040 0.000000
							CHANNELS 6 Xposition Yposition Zposition Xrotation Yrotation Zrotation
							JOINT LeftHandThumb
							{
								OFFSET 0.000000 0.000000 0.000000
								CHANNELS 6 Xposition Yposition Zposition Xrotation Yrotation Zrotation
								End Site
								{
									OFFSET 0.000000 0.000000 3.937000
								}
							}
							JOINT L_Wrist_End
							{
								OFFSET 3.937000 -0.000010 0.000000
								CHANNELS 6 Xposition Yposition Zposition Xrotation Yrotation Zrotation
								End Site
								{
									OFFSET 0.000000 0.100000 0.000000
								}
							}
						}
					}
				}
			}
			JOINT RightShoulder
			{
				OFFSET 0.000000 8.819270 0.000000
				CHANNELS 3 Xrotation Yrotation Zrotation
				JOINT RightArm
				{
					OFFSET -7.313730 -0.000031 0.000000
					CHANNELS 6 Xposition Yposition Zposition Xrotation Yrotation Zrotation
					JOINT RightForeArm
					{
						OFFSET -10.822620 -0.000040 0.000000
						CHANNELS 6 Xposition Yposition Zposition Xrotation Yrotation Zrotation
						JOINT RightHand
						{
							OFFSET -10.147810 -0.000040 0.000000
							CHANNELS 6 Xposition Yposition Zposition Xrotation Yrotation Zrotation
							JOINT RightHandThumb
							{
								OFFSET 0.000000 0.000000 0.000000
								CHANNELS 6 Xposition Yposition Zposition Xrotation Yrotation Zrotation
								End Site
								{
									OFFSET 0.000000 0.000000 3.937000
								}
							}
							JOINT R_Wrist_End
							{
								OFFSET -5.393688 -0.000019 0.000000
								CHANNELS 6 Xposition Yposition Zposition Xrotation Yrotation Zrotation
								End Site
								{
									OFFSET 0.000000 0.100000 0.000000
								}
							}
						}
					}
				}
			}
		}
	}
}
MOTION
Frames: 5
Frame Time: 0.041667
0.029517 34.147495 0.564560 -2.395889 3.623762 3.449788 3.317153 0.000004 -0.000000 0.759140 3.337796 -5.628709 0.000002 -16.621223 0.000002 11.753723 0.881857 -0.531071 -0.000059 -16.132044 0.000177 -9.418376 2.600909 2.509573 0.000002 -1.705425 6.364749 0.000001 -0.000001 -0.000000 -3.317153 0.000008 -0.000002 -13.445647 9.603679 -0.683101 -0.000003 -16.621281 -0.000001 23.279289 7.195008 -0.531326 0.000008 -16.132074 0.000177 -6.011915 -14.933773 -2.048298 0.000003 -1.705437 6.364733 -0.000001 -0.000028 0.000005 -0.000001 0.039357 0.000000 0.000002 0.000001 0.000002 0.000116 9.211446 0.007749 1.287691 -8.015591 -4.456223 3.232596 0.161450 0.112513 0.000000 6.846350 0.000003 3.232521 0.161451 0.112516 3.305660 4.784453 -9.310203 7.313740 -0.000040 0.000007 14.642894 -20.317241 -61.951428 10.822600 -0.000013 0.000001 -6.022971 -10.115978 -0.825817 10.147806 -0.000040 0.000001 -0.000001 0.000002 -0.000001 0.000002 -0.000002 -0.000001 0.000002 0.000002 -0.000001 3.937001 -0.000009 0.000001 0.000001 0.000001 -0.000002 -5.602172 5.339195 13.666677 -7.313729 -0.000054 0.000010 27.716631 33.817086 55.380086 -10.822609 -0.000005 -0.000002 -10.885080 13.496697 -2.950790 -10.147808 -0.000040 -0.000001 -0.000001 0.000001 0.000001 -0.000001 0.000004 -0.000001 0.000001 -0.000000 0.000003 -5.393689 -0.000015 -0.000001 -0.000002 -0.000000 0.000003 
0.036994 34.147099 0.558035 -2.400153 3.615063 3.454489 3.317155 0.000016 0.000001 0.756596 3.352411 -5.648253 0.000000 -16.621260 0.000002 11.753034 0.894050 -0.532944 -0.000053 -16.132097 0.000194 -9.409823 2.583402 2.521211 0.000002 -1.705429 6.364749 -0.000000 0.000000 0.000000 -3.317160 0.000000 0.000001 -13.453381 9.586426 -0.699455 -0.000002 -16.621277 0.000005 23.287457 7.218842 -0.541726 0.000014 -16.132059 0.000175 -6.003938 -14.928150 -2.031146 0.000000 -1.705436 6.364740 -0.000041 -0.000040 0.000001 0.000000 0.039357 -0.000000 -0.000013 -0.000000 -0.000000 -0.000010 9.211484 0.007749 1.290511 -8.009137 -4.428383 3.232522 0.161452 0.112513 -0.000000 6.846365 0.000003 3.232501 0.161449 0.112514 3.312334 4.783121 -9.331980 7.313727 -0.000031 0.000007 14.621794 -20.303362 -61.975006 10.822632 -0.000034 0.000004 -6.004717 -10.116581 -0.826372 10.147811 -0.000040 0.000001 -0.000002 0.000001 -0.000002 0.000004 0.000001 -0.000001 0.000003 0.000002 -0.000000 3.937004 -0.000009 0.000000 -0.000000 0.000001 -0.000001 -5.590725 5.343663 13.630072 -7.313734 -0.000037 0.000010 27.762424 33.856968 55.330403 -10.822579 -0.000020 0.000009 -10.926651 13.510249 -2.946928 -10.147808 -0.000041 -0.000000 -0.000001 0.000001 0.000001 -0.000001 0.000000 -0.000000 -0.000003 0.000000 0.000003 -5.393692 -0.000019 -0.000000 -0.000001 0.000001 -0.000000 
0.044474 34.146683 0.551509 -2.404440 3.606505 3.458955 3.317164 0.000014 0.000000 0.754888 3.367095 -5.667533 0.000001 -16.621258 0.000001 11.750558 0.906221 -0.534749 -0.000056 -16.132084 0.000200 -9.400793 2.565700 2.532789 0.000002 -1.705429 6.364748 0.000000 0.000003 -0.000000 -3.317158 -0.000004 -0.000000 -13.461704 9.569520 -0.715415 -0.000001 -16.621281 0.000004 23.296664 7.242527 -0.552060 0.000016 -16.132065 0.000179 -5.996494 -14.922901 -2.014056 -0.000001 -1.705431 6.364749 -0.000020 -0.000016 -0.000002 -0.000001 0.039353 -0.000001 0.000002 0.000000 0.000002 -0.000141 9.211453 0.007749 1.293361 -8.002671 -4.400323 3.232544 0.161452 0.112510 -0.000000 6.846363 -0.000001 3.232451 0.161448 0.112515 3.319065 4.781856 -9.353669 7.313733 -0.000028 0.000008 14.600964 -20.289741 -61.998105 10.822613 -0.000026 0.000004 -5.979496 -10.122287 -0.827168 10.147802 -0.000041 -0.000000 0.000000 0.000001 -0.000001 -0.000002 -0.000002 -0.000000 -0.000001 0.000002 -0.000001 3.937001 -0.000010 0.000001 -0.000003 0.000001 -0.000001 -5.578964 5.347919 13.593592 -7.313722 -0.000048 0.000007 27.807761 33.895142 55.281277 -10.822600 -0.000018 0.000002 -10.967597 13.524914 -2.942717 -10.147804 -0.000041 0.000001 -0.000007 -0.000001 0.000001 -0.000004 0.000004 -0.000000 -0.000001 0.000001 -0.000001 -5.393692 -0.000013 -0.000000 -0.000001 0.000003 0.000001 
0.051439 34.146286 0.545081 -2.408705 3.604868 3.456949 3.317156 0.000007 -0.000002 0.745449 3.391567 -5.674388 0.000001 -16.621244 0.000003 11.762924 0.916503 -0.534560 -0.000056 -16.132076 0.000188 -9.399030 2.537146 2.543294 0.000002 -1.705433 6.364750 0.000001 0.000000 -0.000000 -3.317157 -0.000004 -0.000001 -13.466288 9.570835 -0.722120 -0.000003 -16.621244 0.000008 23.297114 7.259696 -0.558941 0.000005 -16.132080 0.000178 -5.985163 -14.937654 -1.996157 0.000002 -1.705434 6.364751 -0.000027 -0.000024 -0.000002 -0.000000 0.039363 -0.000001 -0.000015 -0.000000 -0.000000 -0.000303 9.211442 0.007749 1.296753 -7.995680 -4.366429 3.232644 0.161448 0.112512 0.000000 6.846357 -0.000001 3.232584 0.161455 0.112516 3.329283 4.783692 -9.370848 7.313725 -0.000033 0.000005 14.586542 -20.291794 -62.000981 10.822617 -0.000024 0.000000 -5.954105 -10.127408 -0.827997 10.147809 -0.000040 0.000000 -0.000002 0.000003 0.000002 0.000002 0.000000 -0.000000 0.000002 0.000002 0.000001 3.937001 -0.000011 -0.000000 0.000003 0.000001 -0.000001 -5.553214 5.340813 13.564923 -7.313735 -0.000062 0.000008 27.803159 33.864450 55.274102 -10.822593 -0.000004 0.000004 -10.978330 13.541136 -2.936325 -10.147808 -0.000040 0.000001 0.000000 -0.000000 0.000001 0.000002 0.000000 0.000000 0.000001 0.000000 0.000001 -5.393688 -0.000019 -0.000000 -0.000000 0.000002 0.000001 
0.058415 34.145931 0.538651 -2.412989 3.603229 3.454933 3.317158 0.000004 0.000000 0.735617 3.416087 -5.681222 0.000001 -16.621252 0.000001 11.776091 0.926765 -0.534363 -0.000059 -16.132071 0.000188 -9.397662 2.508596 2.553790 0.000002 -1.705429 6.364749 -0.000001 -0.000001 0.000000 -3.317150 0.000004 -0.000000 -13.471130 9.572165 -0.728807 -0.000004 -16.621300 -0.000001 23.297767 7.276835 -0.565868 0.000015 -16.132063 0.000174 -5.972563 -14.954288 -1.978956 0.000002 -1.705437 6.364736 -0.000031 -0.000022 -0.000002 -0.000000 0.039362 0.000000 -0.000031 0.000001 -0.000001 -0.000465 9.211448 0.007750 1.299843 -7.989035 -4.334578 3.232637 0.161448 0.112511 0.000000 6.846354 -0.000002 3.232612 0.161448 0.112513 3.339499 4.785558 -9.387959 7.313729 -0.000014 0.000007 14.572678 -20.293600 -62.003706 10.822626 -0.000028 0.000005 -5.922067 -10.138370 -0.829199 10.147814 -0.000041 0.000001 0.000002 0.000001 -0.000001 0.000000 -0.000002 -0.000001 0.000000 0.000003 -0.000001 3.937001 -0.000010 0.000001 -0.000002 0.000001 -0.000001 -5.527450 5.333699 13.536249 -7.313731 -0.000056 0.000004 27.798600 33.833772 55.266930 -10.822598 -0.000011 0.000002 -10.989069 13.557364 -2.929956 -10.147808 -0.000041 -0.000001 -0.000001 -0.000000 0.000001 -0.000006 -0.000000 0.000001 -0.000003 0.000001 0.000002 -5.393693 -0.000017 0.000001 -0.000001 0.000001 0.000002 
